<svg width="45" height="45" viewBox="0 0 45 45" fill="none" xmlns="http://www.w3.org/2000/svg">
<path d="M13.0353 0H31.9141C39.106 0 44.9494 5.84342 44.9494 13.0353V31.9141C44.9494 35.3712 43.576 38.6868 41.1314 41.1314C38.6868 43.576 35.3712 44.9494 31.9141 44.9494H13.0353C5.84342 44.9494 0 39.106 0 31.9141V13.0353C0 9.57814 1.37336 6.26255 3.81796 3.81796C6.26255 1.37336 9.57814 0 13.0353 0ZM12.5858 4.49494C10.44 4.49494 8.38204 5.34737 6.8647 6.8647C5.34737 8.38204 4.49494 10.44 4.49494 12.5858V32.3635C4.49494 36.836 8.11336 40.4544 12.5858 40.4544H32.3635C34.5094 40.4544 36.5673 39.602 38.0847 38.0847C39.602 36.5673 40.4544 34.5094 40.4544 32.3635V12.5858C40.4544 8.11336 36.836 4.49494 32.3635 4.49494H12.5858ZM34.2739 7.86614C35.019 7.86614 35.7335 8.16212 36.2604 8.68898C36.7873 9.21583 37.0832 9.93039 37.0832 10.6755C37.0832 11.4206 36.7873 12.1351 36.2604 12.662C35.7335 13.1888 35.019 13.4848 34.2739 13.4848C33.5288 13.4848 32.8142 13.1888 32.2874 12.662C31.7605 12.1351 31.4646 11.4206 31.4646 10.6755C31.4646 9.93039 31.7605 9.21583 32.2874 8.68898C32.8142 8.16212 33.5288 7.86614 34.2739 7.86614ZM22.4747 11.2373C25.455 11.2373 28.3133 12.4213 30.4207 14.5287C32.5281 16.6361 33.712 19.4944 33.712 22.4747C33.712 25.455 32.5281 28.3133 30.4207 30.4207C28.3133 32.5281 25.455 33.712 22.4747 33.712C19.4944 33.712 16.6361 32.5281 14.5287 30.4207C12.4213 28.3133 11.2373 25.455 11.2373 22.4747C11.2373 19.4944 12.4213 16.6361 14.5287 14.5287C16.6361 12.4213 19.4944 11.2373 22.4747 11.2373ZM22.4747 15.7323C20.6865 15.7323 18.9715 16.4426 17.7071 17.7071C16.4426 18.9715 15.7323 20.6865 15.7323 22.4747C15.7323 24.2629 16.4426 25.9778 17.7071 27.2423C18.9715 28.5067 20.6865 29.2171 22.4747 29.2171C24.2629 29.2171 25.9778 28.5067 27.2423 27.2423C28.5067 25.9778 29.2171 24.2629 29.2171 22.4747C29.2171 20.6865 28.5067 18.9715 27.2423 17.7071C25.9778 16.4426 24.2629 15.7323 22.4747 15.7323Z" fill="#E45A3B"/>
</svg>
