<svg width="51" height="22" viewBox="0 0 51 22" fill="none" xmlns="http://www.w3.org/2000/svg">
<path d="M24.0742 3.20787V21.779H44.0157C48.2271 21.4821 50.1166 18.878 50.1166 15.68C50.1166 12.2993 47.567 9.581 44.1523 9.581C43.2873 9.581 42.5588 9.76374 41.8076 10.0835C41.2612 4.73833 36.7312 0.558105 31.1539 0.558105C28.4905 0.558105 25.9637 1.56319 24.0742 3.20787ZM22.071 5.53783C21.388 5.12666 20.6596 4.80686 19.8628 4.64696V21.779H23.0271V4.28148C22.6856 4.64696 22.3669 5.10382 22.071 5.53783ZM16.7214 4.30432V21.779H18.8157V4.37285C18.3832 4.30432 17.9506 4.28148 17.4954 4.28148C17.2222 4.28148 16.9718 4.28148 16.7214 4.30432ZM12.5555 5.7891V21.779H14.6271V4.73833C13.8758 4.9896 13.1701 5.35509 12.5555 5.7891ZM8.75387 11.4998C8.61729 11.4998 8.4807 11.3627 8.32135 11.2942V21.779H10.4157V7.75358C9.57339 8.85003 9.00428 10.1521 8.75387 11.4998ZM4.10996 10.8602V21.5735C4.58801 21.7105 5.13435 21.779 5.72622 21.779H6.22704V10.6775C6.04492 10.6546 5.86281 10.6318 5.72622 10.6318C5.13435 10.6318 4.58801 10.7231 4.10996 10.8602ZM0.0351562 16.2054C0.0351562 17.9186 0.809142 19.4262 2.01565 20.4542V11.9795C0.809142 12.9846 0.0351562 14.515 0.0351562 16.2054Z" fill="#E45A3B"/>
</svg>
