<svg width="49" height="39" viewBox="0 0 49 39" fill="none" xmlns="http://www.w3.org/2000/svg">
<path d="M49 4.58824C47.1965 5.39118 45.2524 5.91882 43.238 6.17118C45.2992 4.95529 46.892 3.02824 47.6415 0.711176C45.6974 1.85824 43.5425 2.66118 41.2706 3.12C39.4202 1.14706 36.8203 0 33.869 0C28.3647 0 23.8676 4.40471 23.8676 9.84176C23.8676 10.6218 23.9613 11.3788 24.1252 12.09C15.7868 11.6771 8.36185 7.75412 3.41969 1.81235C2.55306 3.25765 2.06119 4.95529 2.06119 6.74471C2.06119 10.1629 3.81788 13.1912 6.53489 14.9118C4.87189 14.9118 3.326 14.4529 1.9675 13.7647V13.8335C1.9675 18.6053 5.43403 22.5971 10.0249 23.4918C8.55094 23.8868 7.00357 23.9418 5.5043 23.6524C6.14047 25.608 7.38639 27.3193 9.06691 28.5455C10.7474 29.7718 12.7781 30.4514 14.8733 30.4888C11.3216 33.2428 6.91902 34.7314 2.3891 34.71C1.59273 34.71 0.796367 34.6641 0 34.5724C4.45029 37.3712 9.74379 39 15.412 39C33.869 39 44.011 23.9965 44.011 10.9888C44.011 10.5529 44.011 10.14 43.9876 9.70412C45.9551 8.32765 47.6415 6.58412 49 4.58824Z" fill="#E45A3B"/>
</svg>
