<svg width="53" height="37" viewBox="0 0 53 37" fill="none" xmlns="http://www.w3.org/2000/svg">
<path d="M52.9878 13.04C53.1069 9.6163 52.3532 6.21826 50.7969 3.16135C49.741 1.90703 48.2755 1.06056 46.6559 0.769439C39.9569 0.165541 33.2301 -0.0819771 26.5045 0.0279454C19.8034 -0.0869662 13.1009 0.152565 6.42537 0.74552C5.10558 0.984034 3.88422 1.59906 2.91031 2.51554C0.743496 4.50083 0.502739 7.89735 0.261982 10.7676C-0.0873274 15.9284 -0.0873274 21.1065 0.261982 26.2673C0.331634 27.8828 0.573748 29.4864 0.984253 31.0511C1.27455 32.2592 1.86187 33.3769 2.69363 34.3041C3.67416 35.2691 4.92397 35.9191 6.28091 36.1698C11.4714 36.8063 16.7014 37.0701 21.9301 36.9591C30.3566 37.0787 37.7479 36.9591 46.4873 36.2894C47.8776 36.0541 49.1626 35.4033 50.1709 34.4237C50.845 33.7537 51.3484 32.9338 51.6396 32.0318C52.5006 29.4069 52.9235 26.6598 52.8915 23.8993C52.9878 22.5598 52.9878 14.4751 52.9878 13.04ZM21.0634 25.3344V10.5285L35.3162 17.9673C31.3197 20.1679 26.0471 22.6555 21.0634 25.3344Z" fill="#E45A3B"/>
</svg>
