<svg width="230" height="255" viewBox="0 0 230 255" fill="none" xmlns="http://www.w3.org/2000/svg">
<path d="M148.125 245.443L118.273 173.039L115.772 166.973L113.602 173.166L86.1159 251.622L60.6034 242.684L88.0899 164.228L90.2594 158.035L84.5192 161.214L16.0071 199.158L4.94981 172.34L73.9659 134.116L78.8451 131.414L73.5813 129.57L3.90181 105.158L14.1224 75.9849L83.8019 100.396L89.0657 102.24L86.9397 97.084L56.8677 24.1461L82.2445 10.0916L112.097 82.4967L114.598 88.563L116.768 82.3703L144.254 3.91345L169.767 12.8515L142.28 91.3083L140.111 97.501L145.851 94.3219L214.362 56.3785L225.401 83.189L156.384 121.413L151.505 124.115L156.768 125.959L226.468 150.378L216.248 179.551L146.548 155.133L141.284 153.289L143.41 158.445L173.482 231.384L148.125 245.443Z" stroke="#FFD600" stroke-width="5"/>
</svg>
