<svg width="202" height="91" viewBox="0 0 202 91" fill="none" xmlns="http://www.w3.org/2000/svg">
<path d="M16.0655 19.7562H9.51248V37.9356L15.6427 37.8752V44.549H9.51248V71.335H1.54012V12.9012H16.0655V19.7562ZM25.7592 64.4799H32.8256V71.335H17.7868V12.9012H32.7048V19.7562H25.7592V37.8148H32.3122V44.4886H25.7592V64.4799ZM53.9342 33.8588H46.0223V20.7527C46.0223 19.6052 45.4988 19.0314 44.452 19.0314C43.4252 19.0113 42.9118 19.5247 42.9118 20.5715V33.3756C42.9118 34.7446 43.5359 35.7714 44.7841 36.4559L48.4079 37.8148C50.3809 38.6 51.8506 39.6066 52.8169 40.8346C53.8034 42.0426 54.2966 43.8444 54.2966 46.2401V62.7888C54.2966 65.5872 53.441 67.7816 51.7298 69.3721C50.0185 70.9625 47.6631 71.7577 44.6634 71.7577C41.563 71.7577 39.1874 71.0732 37.5365 69.7043C35.8857 68.3151 35.0603 66.3422 35.0603 63.7854V47.6595H42.9722V63.3626C42.9722 64.5504 43.5058 65.1443 44.5728 65.1443C45.6599 65.1443 46.2035 64.5907 46.2035 63.4834V47.9614C46.2035 46.4314 45.4787 45.3141 44.0292 44.6094L40.8886 43.4317C38.7948 42.7271 37.2648 41.7104 36.2984 40.3817C35.3522 39.0328 34.8791 37.1504 34.8791 34.7346V20.9943C34.8791 18.3973 35.7045 16.3337 37.3554 14.8037C39.0062 13.2736 41.412 12.5086 44.5728 12.5086C47.5926 12.5086 49.9078 13.2031 51.5184 14.5923C53.129 15.9814 53.9342 17.904 53.9342 20.3602V33.8588ZM72.9592 12.9012V19.7562H68.0671V71.335H60.0947V19.8166H55.2026V12.9616L72.9592 12.9012ZM82.3509 12.9012H90.3233V71.335H82.3509V12.9012ZM112.338 12.9012V63.4834C112.338 66.2012 111.502 68.2648 109.831 69.6741C108.16 71.0632 105.815 71.7577 102.795 71.7577C99.7351 71.7577 97.3897 71.0632 95.759 69.6741C94.1484 68.2648 93.3431 66.2214 93.3431 63.5438V12.9012H101.315V63.3022C101.315 64.5303 101.809 65.1443 102.795 65.1443C103.822 65.1443 104.345 64.5303 104.365 63.3022V12.9012H112.338ZM131.786 12.9012V19.7562H126.893V71.335H118.921V19.8166H114.029V12.9616L131.786 12.9012ZM133.748 12.9012H141.479V23.7726C141.479 26.6112 139.879 28.0305 136.678 28.0305H133.809V25.0711H135.621C136.688 25.0711 137.221 24.598 137.221 23.6518V21.9909H133.748V12.9012ZM144.559 22.5948C144.559 15.8707 147.791 12.5086 154.253 12.5086C160.736 12.5086 163.977 15.8707 163.977 22.5948V61.6111C163.977 68.3755 160.716 71.7577 154.193 71.7577C147.771 71.7577 144.559 68.3755 144.559 61.6111V22.5948ZM155.884 63.2418V21.0547C155.884 19.7864 155.34 19.1522 154.253 19.1522C153.186 19.1321 152.653 19.7663 152.653 21.0547V63.2418C152.653 63.8256 152.804 64.2887 153.106 64.6309C153.428 64.9732 153.82 65.1443 154.283 65.1443C155.35 65.1443 155.884 64.5101 155.884 63.2418Z" fill="#FFD600"/>
<path d="M201.249 49.1434H193.42L198.955 43.6086L196.634 41.2861L191.1 46.8208V38.9941H187.815V46.8208L182.28 41.2861L179.958 43.6086L185.493 49.1434H177.666V52.4257H185.493L179.958 57.9604L182.28 60.283L187.815 54.7482V62.5749H191.1V54.7482L196.634 60.283L198.955 57.9604L193.42 52.4257H201.249V49.1434Z" fill="#19212C"/>
</svg>
