<svg width="167" height="81" viewBox="0 0 167 81" fill="none" xmlns="http://www.w3.org/2000/svg">
<path d="M14.3133 11.9393V18.0467H8.47499V34.2434L13.9367 34.1895V40.1355H8.47499V64H1.37214V11.9393H14.3133ZM22.9498 40.0817V57.8926H29.2455V64H15.8469V11.9393H29.1378V18.0467H22.9498V34.1357H28.7881V40.0817H22.9498ZM48.0519 18.5848V30.6112H41.0028V18.9346C41.0028 17.9122 40.5455 17.401 39.6307 17.3741C38.689 17.3741 38.2317 17.8315 38.2317 18.7731V30.1807C38.2317 31.3915 38.7967 32.3062 39.8997 32.925L43.1283 34.1357C44.8771 34.8353 46.1955 35.7231 47.0833 36.7993C47.9443 37.9024 48.3747 39.5167 48.3747 41.6422V56.386C48.3747 58.8881 47.6214 60.8252 46.0878 62.2512C44.5543 63.6771 42.4557 64.3767 39.7921 64.3767C34.2767 64.3767 31.2364 61.8207 31.2364 57.2738V42.9067H38.2855V56.8971C38.2855 57.9464 38.7697 58.4845 39.7383 58.4845C40.68 58.4845 41.1643 58.0002 41.1643 57.0048V43.1757C41.1643 41.8036 40.5186 40.8081 39.2271 40.1893L36.429 39.14C32.6893 37.8755 31.075 35.6962 31.075 31.3915V19.1498C31.075 14.5222 34.0883 11.5896 39.7114 11.5896C45.0924 11.5896 48.0519 14.1993 48.0519 18.5848ZM49.1819 11.9931L65.0019 11.9393V18.0467H60.6433V64H53.5405V18.1005H49.1819V11.9931ZM73.3693 64V11.9393H80.4721V64H73.3693ZM92.9828 11.9393H100.086V57.0048C100.086 61.8476 96.9647 64.3767 91.5837 64.3767C86.1221 64.3767 83.1626 61.8207 83.1626 57.0586V11.9393H90.2654V56.8433C90.2654 57.9464 90.6959 58.4845 91.5837 58.4845C92.4985 58.4845 92.9559 57.9464 92.9828 56.8433V11.9393ZM101.592 11.9931L117.412 11.9393V18.0467H113.054V64H105.951V18.1005H101.592V11.9931ZM119.161 20.0376V11.9393H126.049V21.625C126.049 24.1541 124.623 25.4186 121.771 25.4186H119.215V22.7819H120.829C121.771 22.7819 122.255 22.3515 122.255 21.5174V20.0376H119.161ZM128.793 55.3367V20.5757C128.793 14.576 131.672 11.5896 137.456 11.5896C143.214 11.5896 146.093 14.576 146.093 20.5757V55.3367C146.093 61.3633 143.187 64.3767 137.376 64.3767C131.645 64.3767 128.793 61.3633 128.793 55.3367ZM138.882 56.7895V19.2036C138.882 18.0736 138.398 17.5086 137.456 17.4817C136.488 17.4817 136.004 18.0467 136.004 19.2036V56.7895C136.004 57.8388 136.622 58.4845 137.456 58.4845C138.398 58.4845 138.882 57.9195 138.882 56.7895Z" fill="#E45A3B"/>
<path d="M167 45.5761H161.769L165.467 41.8778L163.917 40.3258L160.219 44.0241V38.7943H158.024V44.0241L154.326 40.3258L152.774 41.8778L156.472 45.5761H151.242V47.7693H156.472L152.774 51.4676L154.326 53.0196L158.024 49.3212V54.551H160.219V49.3212L163.917 53.0196L165.467 51.4676L161.769 47.7693H167V45.5761Z" fill="#FFD600"/>
</svg>
