<svg width="38" height="38" viewBox="0 0 38 38" fill="none" xmlns="http://www.w3.org/2000/svg">
<path d="M33.25 19C33.25 11.1328 26.8672 4.75 19 4.75C11.1328 4.75 4.75 11.1328 4.75 19C4.75 26.8672 11.1328 33.25 19 33.25C26.8672 33.25 33.25 26.8672 33.25 19Z" stroke="#C14242" stroke-width="2.375" stroke-miterlimit="10"/>
<path d="M18.5747 12.3238L19.0007 21.3747L19.4259 12.3238C19.4286 12.2659 19.4194 12.2081 19.3989 12.1539C19.3784 12.0997 19.3471 12.0503 19.3069 12.0086C19.2667 11.9669 19.2184 11.9339 19.165 11.9115C19.1116 11.8891 19.0541 11.8779 18.9962 11.8784C18.939 11.879 18.8825 11.891 18.83 11.9139C18.7775 11.9368 18.7302 11.97 18.6909 12.0116C18.6515 12.0531 18.6209 12.1022 18.601 12.1558C18.581 12.2095 18.5721 12.2666 18.5747 12.3238Z" stroke="#C14242" stroke-width="2.375" stroke-linecap="round" stroke-linejoin="round"/>
<path d="M19 27.3057C18.7064 27.3057 18.4194 27.2186 18.1753 27.0555C17.9312 26.8924 17.741 26.6606 17.6286 26.3893C17.5163 26.1181 17.4869 25.8196 17.5441 25.5317C17.6014 25.2438 17.7428 24.9793 17.9504 24.7717C18.158 24.5641 18.4225 24.4227 18.7104 24.3654C18.9984 24.3082 19.2968 24.3376 19.568 24.4499C19.8393 24.5623 20.0711 24.7525 20.2342 24.9966C20.3973 25.2407 20.4844 25.5277 20.4844 25.8213C20.4844 26.215 20.328 26.5925 20.0496 26.8709C19.7712 27.1493 19.3937 27.3057 19 27.3057Z" fill="#C14242"/>
</svg>
