<svg width="36" height="37" viewBox="0 0 36 37" fill="none" xmlns="http://www.w3.org/2000/svg">
<path d="M29.25 6.43408H6.75C4.88604 6.43408 3.375 7.94512 3.375 9.80908V30.0591C3.375 31.923 4.88604 33.4341 6.75 33.4341H29.25C31.114 33.4341 32.625 31.923 32.625 30.0591V9.80908C32.625 7.94512 31.114 6.43408 29.25 6.43408Z" stroke="#E45A3B" stroke-width="3" stroke-linejoin="round"/>
<path d="M20.8125 18.8091C21.7445 18.8091 22.5 18.0536 22.5 17.1216C22.5 16.1896 21.7445 15.4341 20.8125 15.4341C19.8805 15.4341 19.125 16.1896 19.125 17.1216C19.125 18.0536 19.8805 18.8091 20.8125 18.8091Z" fill="#E45A3B"/>
<path d="M26.4375 18.8091C27.3695 18.8091 28.125 18.0536 28.125 17.1216C28.125 16.1896 27.3695 15.4341 26.4375 15.4341C25.5055 15.4341 24.75 16.1896 24.75 17.1216C24.75 18.0536 25.5055 18.8091 26.4375 18.8091Z" fill="#E45A3B"/>
<path d="M20.8125 24.4341C21.7445 24.4341 22.5 23.6786 22.5 22.7466C22.5 21.8146 21.7445 21.0591 20.8125 21.0591C19.8805 21.0591 19.125 21.8146 19.125 22.7466C19.125 23.6786 19.8805 24.4341 20.8125 24.4341Z" fill="#E45A3B"/>
<path d="M26.4375 24.4341C27.3695 24.4341 28.125 23.6786 28.125 22.7466C28.125 21.8146 27.3695 21.0591 26.4375 21.0591C25.5055 21.0591 24.75 21.8146 24.75 22.7466C24.75 23.6786 25.5055 24.4341 26.4375 24.4341Z" fill="#E45A3B"/>
<path d="M9.5625 24.4341C10.4945 24.4341 11.25 23.6786 11.25 22.7466C11.25 21.8146 10.4945 21.0591 9.5625 21.0591C8.63052 21.0591 7.875 21.8146 7.875 22.7466C7.875 23.6786 8.63052 24.4341 9.5625 24.4341Z" fill="#E45A3B"/>
<path d="M15.1875 24.4341C16.1195 24.4341 16.875 23.6786 16.875 22.7466C16.875 21.8146 16.1195 21.0591 15.1875 21.0591C14.2555 21.0591 13.5 21.8146 13.5 22.7466C13.5 23.6786 14.2555 24.4341 15.1875 24.4341Z" fill="#E45A3B"/>
<path d="M9.5625 30.0591C10.4945 30.0591 11.25 29.3036 11.25 28.3716C11.25 27.4396 10.4945 26.6841 9.5625 26.6841C8.63052 26.6841 7.875 27.4396 7.875 28.3716C7.875 29.3036 8.63052 30.0591 9.5625 30.0591Z" fill="#E45A3B"/>
<path d="M15.1875 30.0591C16.1195 30.0591 16.875 29.3036 16.875 28.3716C16.875 27.4396 16.1195 26.6841 15.1875 26.6841C14.2555 26.6841 13.5 27.4396 13.5 28.3716C13.5 29.3036 14.2555 30.0591 15.1875 30.0591Z" fill="#E45A3B"/>
<path d="M20.8125 30.0591C21.7445 30.0591 22.5 29.3036 22.5 28.3716C22.5 27.4396 21.7445 26.6841 20.8125 26.6841C19.8805 26.6841 19.125 27.4396 19.125 28.3716C19.125 29.3036 19.8805 30.0591 20.8125 30.0591Z" fill="#E45A3B"/>
<path d="M9 4.18408V6.43408M27 4.18408V6.43408" stroke="#E45A3B" stroke-width="3" stroke-linecap="round" stroke-linejoin="round"/>
<path d="M32.625 12.0591H3.375" stroke="#E45A3B" stroke-width="3" stroke-linejoin="round"/>
</svg>
