<svg width="28" height="29" viewBox="0 0 28 29" fill="none" xmlns="http://www.w3.org/2000/svg">
<path d="M22.3779 5.09619H5.19043C3.76657 5.09619 2.6123 6.25046 2.6123 7.67432V23.1431C2.6123 24.567 3.76657 25.7212 5.19043 25.7212H22.3779C23.8018 25.7212 24.956 24.567 24.956 23.1431V7.67432C24.956 6.25046 23.8018 5.09619 22.3779 5.09619Z" stroke="#FFD600" stroke-width="1.71875" stroke-linejoin="round"/>
<path d="M15.9326 14.5493C16.6445 14.5493 17.2217 13.9722 17.2217 13.2603C17.2217 12.5483 16.6445 11.9712 15.9326 11.9712C15.2207 11.9712 14.6436 12.5483 14.6436 13.2603C14.6436 13.9722 15.2207 14.5493 15.9326 14.5493Z" fill="#FFD600"/>
<path d="M20.2305 14.5491C20.9424 14.5491 21.5195 13.9719 21.5195 13.26C21.5195 12.5481 20.9424 11.9709 20.2305 11.9709C19.5185 11.9709 18.9414 12.5481 18.9414 13.26C18.9414 13.9719 19.5185 14.5491 20.2305 14.5491Z" fill="#FFD600"/>
<path d="M15.9326 18.8462C16.6445 18.8462 17.2217 18.2691 17.2217 17.5571C17.2217 16.8452 16.6445 16.2681 15.9326 16.2681C15.2207 16.2681 14.6436 16.8452 14.6436 17.5571C14.6436 18.2691 15.2207 18.8462 15.9326 18.8462Z" fill="#FFD600"/>
<path d="M20.2305 18.846C20.9424 18.846 21.5195 18.2688 21.5195 17.5569C21.5195 16.845 20.9424 16.2678 20.2305 16.2678C19.5185 16.2678 18.9414 16.845 18.9414 17.5569C18.9414 18.2688 19.5185 18.846 20.2305 18.846Z" fill="#FFD600"/>
<path d="M7.33887 18.8462C8.0508 18.8462 8.62793 18.2691 8.62793 17.5571C8.62793 16.8452 8.0508 16.2681 7.33887 16.2681C6.62694 16.2681 6.0498 16.8452 6.0498 17.5571C6.0498 18.2691 6.62694 18.8462 7.33887 18.8462Z" fill="#FFD600"/>
<path d="M11.6357 18.8462C12.3477 18.8462 12.9248 18.2691 12.9248 17.5571C12.9248 16.8452 12.3477 16.2681 11.6357 16.2681C10.9238 16.2681 10.3467 16.8452 10.3467 17.5571C10.3467 18.2691 10.9238 18.8462 11.6357 18.8462Z" fill="#FFD600"/>
<path d="M7.33887 23.1431C8.0508 23.1431 8.62793 22.5659 8.62793 21.854C8.62793 21.1421 8.0508 20.5649 7.33887 20.5649C6.62694 20.5649 6.0498 21.1421 6.0498 21.854C6.0498 22.5659 6.62694 23.1431 7.33887 23.1431Z" fill="#FFD600"/>
<path d="M11.6357 23.1431C12.3477 23.1431 12.9248 22.5659 12.9248 21.854C12.9248 21.1421 12.3477 20.5649 11.6357 20.5649C10.9238 20.5649 10.3467 21.1421 10.3467 21.854C10.3467 22.5659 10.9238 23.1431 11.6357 23.1431Z" fill="#FFD600"/>
<path d="M15.9326 23.1431C16.6445 23.1431 17.2217 22.5659 17.2217 21.854C17.2217 21.1421 16.6445 20.5649 15.9326 20.5649C15.2207 20.5649 14.6436 21.1421 14.6436 21.854C14.6436 22.5659 15.2207 23.1431 15.9326 23.1431Z" fill="#FFD600"/>
<path d="M6.90918 3.37744V5.09619M20.6592 3.37744V5.09619" stroke="#FFD600" stroke-width="1.71875" stroke-linecap="round" stroke-linejoin="round"/>
<path d="M24.956 9.39307H2.6123" stroke="#FFD600" stroke-width="1.71875" stroke-linejoin="round"/>
</svg>
