<svg width="37" height="37" viewBox="0 0 37 37" fill="none" xmlns="http://www.w3.org/2000/svg">
<path d="M12.4856 30.6457C13.1125 30.6457 13.6206 30.1375 13.6206 29.5106C13.6206 28.8838 13.1125 28.3756 12.4856 28.3756C11.8588 28.3756 11.3506 28.8838 11.3506 29.5106C11.3506 30.1375 11.8588 30.6457 12.4856 30.6457Z" stroke="#E45A3B" stroke-width="3" stroke-linecap="round" stroke-linejoin="round"/>
<path d="M28.3753 30.6457C29.0021 30.6457 29.5103 30.1375 29.5103 29.5106C29.5103 28.8838 29.0021 28.3756 28.3753 28.3756C27.7484 28.3756 27.2402 28.8838 27.2402 29.5106C27.2402 30.1375 27.7484 30.6457 28.3753 30.6457Z" stroke="#E45A3B" stroke-width="3" stroke-linecap="round" stroke-linejoin="round"/>
<path d="M3.40527 5.67517H7.94537L11.3504 24.9706H29.5108" stroke="#E45A3B" stroke-width="3" stroke-linecap="round" stroke-linejoin="round"/>
<path d="M11.3501 20.4304H29.0451C29.1764 20.4305 29.3036 20.3851 29.4051 20.302C29.5067 20.2188 29.5763 20.103 29.602 19.9743L31.6451 9.75909C31.6615 9.67672 31.6595 9.59171 31.6392 9.51021C31.6188 9.42871 31.5806 9.35274 31.5274 9.28779C31.4741 9.22284 31.4071 9.17053 31.3311 9.13463C31.2552 9.09873 31.1722 9.08014 31.0882 9.0802H9.08008" stroke="#E45A3B" stroke-width="3" stroke-linecap="round" stroke-linejoin="round"/>
</svg>
