<svg width="37" height="37" viewBox="0 0 37 37" fill="none" xmlns="http://www.w3.org/2000/svg">
<path d="M18.6221 3.80225C13.0322 3.80225 8.49707 8.11873 8.49707 13.4351C8.49707 19.5522 15.2471 29.2462 17.7256 32.5945C17.8285 32.7359 17.9633 32.8509 18.1191 32.9302C18.2749 33.0095 18.4473 33.0508 18.6221 33.0508C18.7969 33.0508 18.9692 33.0095 19.125 32.9302C19.2808 32.8509 19.4157 32.7359 19.5186 32.5945C21.9971 29.2476 28.7471 19.5572 28.7471 13.4351C28.7471 8.11873 24.2119 3.80225 18.6221 3.80225Z" stroke="#E45A3B" stroke-opacity="0.8" stroke-width="3" stroke-linecap="round" stroke-linejoin="round"/>
<path d="M18.6221 17.3022C20.486 17.3022 21.9971 15.7912 21.9971 13.9272C21.9971 12.0633 20.486 10.5522 18.6221 10.5522C16.7581 10.5522 15.2471 12.0633 15.2471 13.9272C15.2471 15.7912 16.7581 17.3022 18.6221 17.3022Z" stroke="#E45A3B" stroke-opacity="0.8" stroke-width="3" stroke-linecap="round" stroke-linejoin="round"/>
</svg>
