<svg width="28" height="28" viewBox="0 0 28 28" fill="none" xmlns="http://www.w3.org/2000/svg">
<path d="M10.6279 12.0083V11.686C10.6279 10.889 11.165 10.2358 11.9299 10.043L21.3073 7.53578C21.4662 7.49325 21.6328 7.48779 21.7941 7.51983C21.9555 7.55186 22.1073 7.62053 22.238 7.72054C22.3686 7.82055 22.4745 7.94922 22.5475 8.09664C22.6206 8.24406 22.6588 8.40628 22.6592 8.57079V9.75243" stroke="#ED785B" stroke-width="1.71875" stroke-linecap="round" stroke-linejoin="round"/>
<path d="M22.6582 16.1948V20.4917C22.6582 21.2388 22.1786 21.8661 21.4766 22.103L20.2949 22.5327C18.9038 23.001 17.5019 21.973 17.5019 20.4917C17.4987 20.1111 17.6167 19.7394 17.8388 19.4304C18.0609 19.1214 18.3756 18.8911 18.7373 18.7729L21.4766 17.798C22.1786 17.5617 22.6582 16.9419 22.6582 16.1948ZM22.6582 16.1948V3.41476C22.6578 3.33253 22.6386 3.25148 22.6019 3.17787C22.5653 3.10425 22.5122 3.04004 22.4468 2.99017C22.3814 2.9403 22.3055 2.90611 22.2248 2.89023C22.1441 2.87436 22.0608 2.87722 21.9814 2.8986L11.2715 5.77805C11.0847 5.83081 10.9204 5.9435 10.8039 6.09879C10.6875 6.25407 10.6253 6.44333 10.6269 6.63743V18.7761M10.6269 18.7761C10.6269 19.5232 10.1473 20.1511 9.44531 20.3875L6.65234 21.3543C5.90684 21.6056 5.4707 22.2792 5.4707 23.073C5.4707 24.5544 6.89512 25.5733 8.26367 25.114L9.44531 24.6843C10.1473 24.448 10.6269 23.8207 10.6269 23.073V18.7761Z" stroke="#ED785B" stroke-width="1.71875" stroke-linecap="round" stroke-linejoin="round"/>
</svg>
