<svg width="26" height="26" viewBox="0 0 26 26" fill="none" xmlns="http://www.w3.org/2000/svg">
<path d="M19.8785 8.50244C19.7354 10.4883 18.2622 12.0181 16.6558 12.0181C15.0494 12.0181 13.5738 10.4888 13.4331 8.50244C13.2867 6.43652 14.7207 4.98682 16.6558 4.98682C18.5909 4.98682 20.0249 6.47412 19.8785 8.50244Z" stroke="#ED785B" stroke-width="1.5625" stroke-linecap="round" stroke-linejoin="round"/>
<path d="M16.6561 15.1431C13.4739 15.1431 10.4139 16.7236 9.64727 19.8018C9.5457 20.209 9.80108 20.6118 10.2195 20.6118H23.0931C23.5115 20.6118 23.7654 20.209 23.6653 19.8018C22.8987 16.6743 19.8387 15.1431 16.6561 15.1431Z" stroke="#ED785B" stroke-width="1.5625" stroke-miterlimit="10"/>
<path d="M10.0159 9.37842C9.90165 10.9644 8.71122 12.2134 7.42802 12.2134C6.14481 12.2134 4.95243 10.9648 4.84013 9.37842C4.72343 7.72852 5.88212 6.54932 7.42802 6.54932C8.97392 6.54932 10.1326 7.75879 10.0159 9.37842Z" stroke="#ED785B" stroke-width="1.5625" stroke-linecap="round" stroke-linejoin="round"/>
<path d="M10.3091 15.2407C9.42772 14.8369 8.45702 14.6816 7.42821 14.6816C4.88915 14.6816 2.44286 15.9438 1.83007 18.4023C1.7495 18.7275 1.9536 19.0493 2.28759 19.0493H7.77001" stroke="#ED785B" stroke-width="1.5625" stroke-miterlimit="10" stroke-linecap="round"/>
</svg>
