<svg width="36" height="37" viewBox="0 0 36 37" fill="none" xmlns="http://www.w3.org/2000/svg">
<path d="M25.7378 10.6928C25.1529 10.1077 24.8104 9.32328 24.7788 8.49652C24.7473 7.66976 25.029 6.86156 25.5676 6.23356C25.6122 6.18133 25.6354 6.11419 25.6325 6.0456C25.6296 5.97702 25.6009 5.91205 25.5522 5.86372L22.4493 2.75731C22.398 2.70605 22.3284 2.67725 22.2559 2.67725C22.1834 2.67725 22.1139 2.70605 22.0626 2.75731L17.1168 7.70309C16.9343 7.88553 16.7968 8.10797 16.7153 8.35278C16.6341 8.59816 16.4968 8.82123 16.3143 9.0043C16.1318 9.18737 15.9092 9.32541 15.6641 9.40747C15.4192 9.4891 15.1965 9.62654 15.0137 9.80895L2.33007 22.4898C2.2788 22.5411 2.25 22.6107 2.25 22.6832C2.25 22.7557 2.2788 22.8252 2.33007 22.8765L5.43296 25.9794C5.48128 26.0282 5.54625 26.0569 5.61484 26.0597C5.68343 26.0626 5.75057 26.0394 5.8028 25.9949C6.43067 25.4557 7.23904 25.1735 8.06608 25.2048C8.89313 25.2362 9.67781 25.5788 10.263 26.164C10.8483 26.7493 11.1909 27.5339 11.2222 28.361C11.2536 29.188 10.9714 29.9964 10.4322 30.6243C10.3876 30.6765 10.3645 30.7436 10.3673 30.8122C10.3702 30.8808 10.3989 30.9458 10.4476 30.9941L13.5505 34.097C13.6018 34.1483 13.6714 34.1771 13.7439 34.1771C13.8164 34.1771 13.886 34.1483 13.9373 34.097L26.6216 21.4133C26.804 21.2306 26.9415 21.0079 27.0231 20.7629C27.1043 20.5176 27.2416 20.2945 27.4241 20.1114C27.6066 19.9283 27.8292 19.7903 28.0743 19.7082C28.3191 19.6267 28.5415 19.4892 28.724 19.3068L33.6698 14.361C33.721 14.3097 33.7498 14.2401 33.7498 14.1676C33.7498 14.0951 33.721 14.0256 33.6698 13.9743L30.5669 10.8714C30.5185 10.8226 30.4536 10.7939 30.385 10.7911C30.3164 10.7882 30.2492 10.8114 30.197 10.8559C29.5699 11.3955 28.7622 11.6784 27.9354 11.6482C27.1087 11.6179 26.3238 11.2767 25.7378 10.6928Z" stroke="#E45A3B" stroke-opacity="0.8" stroke-width="3" stroke-miterlimit="10"/>
<path d="M17.613 10.302L16.4521 9.14111M20.7082 13.3971L19.934 12.6237M23.8033 16.493L23.0299 15.7188M27.2859 19.9749L26.125 18.814" stroke="#E45A3B" stroke-opacity="0.8" stroke-width="3" stroke-miterlimit="10" stroke-linecap="round"/>
</svg>
